<svg xmlns:rdf="http://www.w3.org/1999/02/22-rdf-syntax-ns#" xmlns="http://www.w3.org/2000/svg" xmlns:cc="http://creativecommons.org/ns#" xmlns:dc="http://purl.org/dc/elements/1.1/" xmlns:svg="http://www.w3.org/2000/svg" id="svg2" viewBox="0 0 128 128" version="1.0">
  <g id="layer1" stroke="#000" transform="translate(-66.38 -391.32)">
    <path  stroke-linejoin="round" d="m82.38 439.32h80c0 24-3.16 40-24 56h-32c-19.691-14.07-24-32-24-56z" fill-rule="evenodd" stroke-width="6" fill="#9382fe"/>
    <path  stroke-linejoin="round" d="m74.38 487.32h96.34c-8.34 8-8.34 12.66-28.91 15.65h-38.53c-20.9-2.45-20.9-7.65-28.9-15.65z" fill-rule="evenodd" stroke-width="6" fill="#9382fe"/>
    <path  stroke-linejoin="round" d="m116.09 67.721a13.643 18.109 0 1 1 -27.284 0 13.643 18.109 0 1 1 27.284 0z" transform="matrix(.94651 .32267 -.32267 .94651 100.16 363.38)" stroke-linecap="round" stroke-width="6" fill="none"/>
    <path  d="m47.628 7.4419c15.257 15.917-14.094 16.96 0 33.24" transform="translate(66.38 391.32)" stroke-linecap="round" stroke-width="4" fill="none"/>
    <path  stroke-width="4" stroke-linecap="round" fill="none" d="m123.93 399.26c15.26 15.92-14.09 16.96 0 33.24"/>
    <path  stroke-width="4" stroke-linecap="round" fill="none" d="m134.85 399.26c15.25 15.92-14.1 16.96 0 33.24"/>
  </g>
  </svg>